<?xml version="1.0" standalone="no"?>
<svg xmlns:xlink="http://www.w3.org/1999/xlink" id="wave" style="transform:rotate(0deg); transition: 0.3s" viewBox="0 0 1440 220" version="1.1" xmlns="http://www.w3.org/2000/svg"><defs><linearGradient id="sw-gradient-0" x1="0" x2="0" y1="1" y2="0"><stop stop-color="rgba(231, 234, 236, 1)" offset="0%"/><stop stop-color="rgba(231, 234, 236, 1)" offset="100%"/></linearGradient></defs><path style="transform:translate(0, 0px); opacity:1" fill="url(#sw-gradient-0)" d="M0,0L60,22C120,44,240,88,360,102.7C480,117,600,103,720,88C840,73,960,59,1080,51.3C1200,44,1320,44,1440,58.7C1560,73,1680,103,1800,121C1920,139,2040,147,2160,135.7C2280,125,2400,95,2520,95.3C2640,95,2760,125,2880,121C3000,117,3120,81,3240,73.3C3360,66,3480,88,3600,110C3720,132,3840,154,3960,161.3C4080,169,4200,161,4320,143C4440,125,4560,95,4680,88C4800,81,4920,95,5040,110C5160,125,5280,139,5400,143C5520,147,5640,139,5760,128.3C5880,117,6000,103,6120,110C6240,117,6360,147,6480,150.3C6600,154,6720,132,6840,110C6960,88,7080,66,7200,47.7C7320,29,7440,15,7560,33C7680,51,7800,103,7920,102.7C8040,103,8160,51,8280,44C8400,37,8520,73,8580,91.7L8640,110L8640,220L8580,220C8520,220,8400,220,8280,220C8160,220,8040,220,7920,220C7800,220,7680,220,7560,220C7440,220,7320,220,7200,220C7080,220,6960,220,6840,220C6720,220,6600,220,6480,220C6360,220,6240,220,6120,220C6000,220,5880,220,5760,220C5640,220,5520,220,5400,220C5280,220,5160,220,5040,220C4920,220,4800,220,4680,220C4560,220,4440,220,4320,220C4200,220,4080,220,3960,220C3840,220,3720,220,3600,220C3480,220,3360,220,3240,220C3120,220,3000,220,2880,220C2760,220,2640,220,2520,220C2400,220,2280,220,2160,220C2040,220,1920,220,1800,220C1680,220,1560,220,1440,220C1320,220,1200,220,1080,220C960,220,840,220,720,220C600,220,480,220,360,220C240,220,120,220,60,220L0,220Z"/></svg>